<svg width="24" height="24" viewBox="0 0 24 24" fill="none" xmlns="http://www.w3.org/2000/svg">
  <rect x="2" y="3" width="20" height="18" rx="4" fill="#232F3E"/>
  <path d="M6 14.5C8.1 16.1 10.1 16.8 12.7 16.8C14.5 16.8 16.5 16.4 18.4 15.6" stroke="#FF9900" stroke-width="1.7" stroke-linecap="round"/>
  <path d="M17.2 14.5L19.1 15.1L18 17" stroke="#FF9900" stroke-width="1.4" stroke-linecap="round" stroke-linejoin="round"/>
  <path d="M7.1 11.5L8 7.5H9.3L10.2 11.5H9.2L9 10.6H8.2L8 11.5H7.1ZM8.3 9.8H8.9L8.6 8.3L8.3 9.8Z" fill="white"/>
  <path d="M10.5 7.5H11.5L11.9 10.1L12.4 7.5H13.3L13.8 10.1L14.2 7.5H15.2L14.4 11.5H13.3L12.9 9.2L12.4 11.5H11.3L10.5 7.5Z" fill="white"/>
  <path d="M15.7 10.4C16.1 10.6 16.5 10.8 16.9 10.8C17.2 10.8 17.3 10.7 17.3 10.5C17.3 10.3 17.2 10.2 16.7 10C15.9 9.7 15.6 9.4 15.6 8.7C15.6 7.9 16.2 7.5 17.1 7.5C17.5 7.5 17.9 7.6 18.3 7.8L18 8.6C17.7 8.5 17.4 8.4 17.1 8.4C16.8 8.4 16.7 8.5 16.7 8.7C16.7 8.9 16.8 9 17.3 9.2C18.1 9.5 18.4 9.9 18.4 10.5C18.4 11.3 17.8 11.7 16.9 11.7C16.4 11.7 15.9 11.6 15.5 11.3L15.7 10.4Z" fill="white"/>
</svg>
